<mxfile host="Electron" agent="Mozilla/5.0 (Windows NT 10.0; Win64; x64) AppleWebKit/537.36 (KHTML, like Gecko) draw.io/24.7.17 Chrome/128.0.6613.36 Electron/32.0.1 Safari/537.36" version="24.7.17">
  <diagram name="Page-1" id="7e0a89b8-554c-2b80-1dc8-d5c74ca68de4">
    <mxGraphModel dx="2206" dy="1286" grid="1" gridSize="10" guides="1" tooltips="1" connect="1" arrows="1" fold="1" page="1" pageScale="1" pageWidth="1100" pageHeight="850" background="none" math="0" shadow="0">
      <root>
        <mxCell id="0" />
        <mxCell id="1" parent="0" />
        <mxCell id="vOTTCUBnA6drT-C3Ion7-1" value="" style="group" vertex="1" connectable="0" parent="1">
          <mxGeometry x="420" y="20" width="690" height="1110" as="geometry" />
        </mxCell>
        <mxCell id="Lpq-oLVQtSHf2gSnYv1L-7" value="" style="edgeStyle=orthogonalEdgeStyle;rounded=0;orthogonalLoop=1;jettySize=auto;html=1;" parent="vOTTCUBnA6drT-C3Ion7-1" source="Lpq-oLVQtSHf2gSnYv1L-1" target="Lpq-oLVQtSHf2gSnYv1L-5" edge="1">
          <mxGeometry relative="1" as="geometry" />
        </mxCell>
        <mxCell id="Lpq-oLVQtSHf2gSnYv1L-1" value="" style="rounded=0;whiteSpace=wrap;html=1;fillColor=#a0522d;strokeColor=#6D1F00;fontColor=#ffffff;" parent="vOTTCUBnA6drT-C3Ion7-1" vertex="1">
          <mxGeometry x="300" y="300" width="120" height="810" as="geometry" />
        </mxCell>
        <mxCell id="Lpq-oLVQtSHf2gSnYv1L-2" value="" style="endArrow=classic;startArrow=classic;html=1;rounded=0;endSize=12;startSize=12;" parent="vOTTCUBnA6drT-C3Ion7-1" edge="1">
          <mxGeometry width="50" height="50" relative="1" as="geometry">
            <mxPoint x="270" y="1110" as="sourcePoint" />
            <mxPoint x="270" y="300" as="targetPoint" />
          </mxGeometry>
        </mxCell>
        <mxCell id="Lpq-oLVQtSHf2gSnYv1L-3" value="&lt;font style=&quot;font-size: 24px;&quot;&gt;9 cm&lt;/font&gt;" style="text;html=1;align=center;verticalAlign=middle;resizable=0;points=[];autosize=1;strokeColor=none;fillColor=none;" parent="vOTTCUBnA6drT-C3Ion7-1" vertex="1">
          <mxGeometry x="135" y="685" width="80" height="40" as="geometry" />
        </mxCell>
        <mxCell id="Lpq-oLVQtSHf2gSnYv1L-4" value="" style="endArrow=none;html=1;rounded=0;" parent="vOTTCUBnA6drT-C3Ion7-1" edge="1">
          <mxGeometry width="50" height="50" relative="1" as="geometry">
            <mxPoint x="180" y="300" as="sourcePoint" />
            <mxPoint x="540" y="300" as="targetPoint" />
          </mxGeometry>
        </mxCell>
        <mxCell id="Lpq-oLVQtSHf2gSnYv1L-5" value="" style="rounded=0;whiteSpace=wrap;html=1;" parent="vOTTCUBnA6drT-C3Ion7-1" vertex="1">
          <mxGeometry x="330" width="60" height="300" as="geometry" />
        </mxCell>
        <mxCell id="Lpq-oLVQtSHf2gSnYv1L-6" value="" style="endArrow=none;html=1;rounded=0;" parent="vOTTCUBnA6drT-C3Ion7-1" edge="1">
          <mxGeometry width="50" height="50" relative="1" as="geometry">
            <mxPoint x="270" as="sourcePoint" />
            <mxPoint x="450" as="targetPoint" />
          </mxGeometry>
        </mxCell>
        <mxCell id="Lpq-oLVQtSHf2gSnYv1L-8" value="" style="labelPosition=right;align=left;strokeWidth=1;shape=mxgraph.mockup.markup.curlyBrace;html=1;shadow=0;dashed=0;strokeColor=#999999;direction=north;flipH=1;" parent="vOTTCUBnA6drT-C3Ion7-1" vertex="1">
          <mxGeometry x="420" y="840" width="60" height="270" as="geometry" />
        </mxCell>
        <mxCell id="Lpq-oLVQtSHf2gSnYv1L-13" value="" style="labelPosition=right;align=left;strokeWidth=1;shape=mxgraph.mockup.markup.curlyBrace;html=1;shadow=0;dashed=0;strokeColor=#999999;direction=north;flipH=1;" parent="vOTTCUBnA6drT-C3Ion7-1" vertex="1">
          <mxGeometry x="420" y="660" width="60" height="180" as="geometry" />
        </mxCell>
        <mxCell id="Lpq-oLVQtSHf2gSnYv1L-14" value="" style="labelPosition=right;align=left;strokeWidth=1;shape=mxgraph.mockup.markup.curlyBrace;html=1;shadow=0;dashed=0;strokeColor=#999999;direction=north;flipH=1;" parent="vOTTCUBnA6drT-C3Ion7-1" vertex="1">
          <mxGeometry x="420" y="480" width="60" height="180" as="geometry" />
        </mxCell>
        <mxCell id="Lpq-oLVQtSHf2gSnYv1L-15" value="" style="labelPosition=right;align=left;strokeWidth=1;shape=mxgraph.mockup.markup.curlyBrace;html=1;shadow=0;dashed=0;strokeColor=#999999;direction=north;flipH=1;" parent="vOTTCUBnA6drT-C3Ion7-1" vertex="1">
          <mxGeometry x="420" y="315" width="60" height="165" as="geometry" />
        </mxCell>
        <mxCell id="Lpq-oLVQtSHf2gSnYv1L-16" value="&lt;font style=&quot;font-size: 24px;&quot;&gt;Beaker B&lt;/font&gt;" style="text;html=1;align=center;verticalAlign=middle;resizable=0;points=[];autosize=1;strokeColor=none;fillColor=none;" parent="vOTTCUBnA6drT-C3Ion7-1" vertex="1">
          <mxGeometry x="500" y="955" width="120" height="40" as="geometry" />
        </mxCell>
        <mxCell id="Lpq-oLVQtSHf2gSnYv1L-17" value="&lt;font style=&quot;font-size: 24px;&quot;&gt;Beaker D&lt;/font&gt;" style="text;html=1;align=center;verticalAlign=middle;resizable=0;points=[];autosize=1;strokeColor=none;fillColor=none;" parent="vOTTCUBnA6drT-C3Ion7-1" vertex="1">
          <mxGeometry x="500" y="730" width="120" height="40" as="geometry" />
        </mxCell>
        <mxCell id="Lpq-oLVQtSHf2gSnYv1L-18" value="&lt;font style=&quot;font-size: 24px;&quot;&gt;Beaker C&lt;/font&gt;" style="text;html=1;align=center;verticalAlign=middle;resizable=0;points=[];autosize=1;strokeColor=none;fillColor=none;" parent="vOTTCUBnA6drT-C3Ion7-1" vertex="1">
          <mxGeometry x="500" y="550" width="120" height="40" as="geometry" />
        </mxCell>
        <mxCell id="Lpq-oLVQtSHf2gSnYv1L-19" value="&lt;font style=&quot;font-size: 24px;&quot;&gt;Beaker A&lt;/font&gt;" style="text;html=1;align=center;verticalAlign=middle;resizable=0;points=[];autosize=1;strokeColor=none;fillColor=none;" parent="vOTTCUBnA6drT-C3Ion7-1" vertex="1">
          <mxGeometry x="500" y="377.5" width="120" height="40" as="geometry" />
        </mxCell>
        <mxCell id="Lpq-oLVQtSHf2gSnYv1L-23" value="&lt;font style=&quot;font-size: 24px;&quot;&gt;Ocean floor level&lt;/font&gt;" style="text;html=1;align=center;verticalAlign=middle;whiteSpace=wrap;rounded=0;" parent="vOTTCUBnA6drT-C3Ion7-1" vertex="1">
          <mxGeometry x="-20" y="255" width="200" height="90" as="geometry" />
        </mxCell>
      </root>
    </mxGraphModel>
  </diagram>
</mxfile>
